HIERARCHY
ROOT Hips
{
	OFFSET	0.000000	0.000000	0.000000
	CHANNELS 6 Xposition Yposition Zposition Zrotation Xrotation Yrotation
	JOINT LeftUpLeg
	{
		OFFSET	12.830505	-7.049846	-1.643436
		CHANNELS 3 Zrotation Xrotation Yrotation
		JOINT LeftLeg
		{
			OFFSET	0.620834	-39.957500	-1.919341
			CHANNELS 3 Zrotation Xrotation Yrotation
			JOINT LeftFoot
			{
				OFFSET	-0.413890	-44.704761	-3.870325
				CHANNELS 3 Zrotation Xrotation Yrotation
				JOINT LeftFootHeel
				{
					OFFSET	0.164738	-8.918193	-6.555130
					CHANNELS 3 Zrotation Xrotation Yrotation
					End Site
					{
						OFFSET	-0.604053	0.000000	21.044330
					}
				}
			}
		}
	}
	JOINT RightUpLeg
	{
		OFFSET	-12.830505	-7.049846	-1.643436
		CHANNELS 3 Zrotation Xrotation Yrotation
		JOINT RightLeg
		{
			OFFSET	-0.620834	-39.957500	-1.919341
			CHANNELS 3 Zrotation Xrotation Yrotation
			JOINT RightFoot
			{
				OFFSET	0.413890	-44.704761	-3.870325
				CHANNELS 3 Zrotation Xrotation Yrotation
				JOINT RightFootHeel
				{
					OFFSET	-0.164738	-8.918193	-6.555130
					CHANNELS 3 Zrotation Xrotation Yrotation
					End Site
					{
						OFFSET	0.604053	0.000000	21.044330
					}
				}
			}
		}
	}
	JOINT Spine
	{
		OFFSET	0.000000	12.498170	1.820647
		CHANNELS 3 Zrotation Xrotation Yrotation
		JOINT Spine1
		{
			OFFSET	0.000000	7.620000	0.000000
			CHANNELS 3 Zrotation Xrotation Yrotation
			JOINT LeftShoulder
			{
				OFFSET	9.167800	29.136339	-5.551221
				CHANNELS 3 Zrotation Xrotation Yrotation
				JOINT LeftArm
				{
					OFFSET	12.133453	-3.880866	1.461963
					CHANNELS 3 Zrotation Xrotation Yrotation
					JOINT LeftForeArm
					{
						OFFSET	2.507115	-31.664908	-1.069404
						CHANNELS 3 Zrotation Xrotation Yrotation
						JOINT LeftHand
						{
							OFFSET	4.116172	-24.512624	5.009439
							CHANNELS 3 Zrotation Xrotation Yrotation
							End Site
							{
								OFFSET	-0.213136	-10.931856	2.182134
							}
						}
					}
				}
			}
			JOINT RightShoulder
			{
				OFFSET	-9.167800	29.136339	-5.551221
				CHANNELS 3 Zrotation Xrotation Yrotation
				JOINT RightArm
				{
					OFFSET	-12.133453	-3.880866	1.461963
					CHANNELS 3 Zrotation Xrotation Yrotation
					JOINT RightForeArm
					{
						OFFSET	-2.507115	-31.664908	-1.069404
						CHANNELS 3 Zrotation Xrotation Yrotation
						JOINT RightHand
						{
							OFFSET	-4.116172	-24.512624	5.009439
							CHANNELS 3 Zrotation Xrotation Yrotation
							End Site
							{
								OFFSET	0.213136	-10.931856	2.182134
							}
						}
					}
				}
			}
			JOINT Neck
			{
				OFFSET	0.000000	32.926272	-3.635654
				CHANNELS 3 Zrotation Xrotation Yrotation
				JOINT Head
				{
					OFFSET	0.000000	12.481178	4.646143
					CHANNELS 3 Zrotation Xrotation Yrotation
					End Site
					{
						OFFSET	0.000000	17.715204	-2.222063
					}
				}
			}
		}
	}
}
MOTION
Frames:     8
Frame Time: 0.016667
0.440353	103.253773	0.325805	0.731921	0.971132	-0.161014	-0.751082	-0.935207	0.870583	-0.292252	-0.371065	-0.222277	0.275202	0.472650	-0.485533	0.	0.	0.	-1.025538	-1.068734	-0.480857	-0.338814	0.814011	-0.220070	0.636997	-0.713425	0.853028	0.	0.	0.	0.000000	-0.000001	-0.000002	-4.331717	1.742332	0.538208	2.023500	0.464306	3.149174	49.344574	6.324008	-11.829904	103.446739	-153.663681	85.910278	31.483412	-25.795288	-15.411101	-1.905914	-1.234714	1.293720	-35.066666	21.678806	24.537308	64.272034	-43.732140	85.966843	-46.323586	-16.654737	9.102258	-2.382555	0.876176	2.201831	0.267734	-6.194032	0.023941	
0.440353	103.253773	0.325805	0.731921	0.971132	-0.161014	-0.751082	-0.935207	0.870583	-0.292252	-0.371065	-0.222277	0.275202	0.472650	-0.485533	0.	0.	0.	-1.025538	-1.068734	-0.480857	-0.338814	0.814011	-0.220070	0.636997	-0.713425	0.853028	0.	0.	0.	0.000000	-0.000001	-0.000002	-4.331717	1.742332	0.538208	2.023500	0.464306	3.149174	49.344574	6.324008	-11.829904	103.446739	-153.663681	85.910278	31.483412	-25.795288	-15.411101	-1.905914	-1.234714	1.293720	-35.066666	21.678806	24.537308	64.272034	-43.732140	85.966843	-46.323586	-16.654737	9.102258	-2.382555	0.876176	2.201831	0.267734	-6.194032	0.023941	
0.440353	103.253773	0.325805	0.731921	0.971132	-0.161014	-0.751082	-0.935207	0.870583	-0.292252	-0.371065	-0.222277	0.275202	0.472650	-0.485533	0.	0.	0.	-1.025538	-1.068734	-0.480857	-0.338814	0.814011	-0.220070	0.636997	-0.713425	0.853028	0.	0.	0.	0.000000	-0.000001	-0.000002	-4.331717	1.742332	0.538208	2.023500	0.464306	3.149174	49.344574	6.324008	-11.829904	103.444519	-153.664627	85.928566	31.475735	-25.803600	-15.430553	-1.905914	-1.234714	1.293720	-35.084393	21.709908	24.525927	64.287682	-43.725449	85.922821	-46.354240	-16.707621	9.120786	-2.387589	0.901894	2.208428	0.275792	-6.187398	0.006599	
0.440353	103.253773	0.325805	0.731921	0.971132	-0.161014	-0.751082	-0.935207	0.870583	-0.292252	-0.371065	-0.222277	0.275202	0.472650	-0.485533	0.	0.	0.	-1.025538	-1.068734	-0.480857	-0.338814	0.814011	-0.220070	0.636997	-0.713425	0.853028	0.	0.	0.	0.000000	-0.000001	-0.000002	-4.331717	1.742332	0.538208	2.023500	0.464306	3.149174	49.344574	6.324008	-11.829904	103.442955	-153.665268	85.941460	31.470320	-25.809465	-15.444259	-1.905914	-1.234714	1.293720	-35.089676	21.718084	24.527422	64.299057	-43.728539	85.926880	-46.360298	-16.708960	9.119773	-2.388792	0.907994	2.209997	0.277511	-6.190498	0.004533	
0.440353	103.253773	0.325805	0.731921	0.971132	-0.161014	-0.751082	-0.935207	0.870583	-0.292252	-0.371065	-0.222277	0.275202	0.472650	-0.485533	0.	0.	0.	-1.025538	-1.068734	-0.480857	-0.338814	0.814011	-0.220070	0.636997	-0.713425	0.853028	0.	0.	0.	0.000000	-0.000001	-0.000002	-4.331717	1.742332	0.538208	2.023500	0.464306	3.149174	49.344574	6.324008	-11.829904	103.441261	-153.665985	85.955559	31.464394	-25.815880	-15.459248	-1.905914	-1.234714	1.293720	-35.100613	21.735027	24.530518	64.328903	-43.732964	85.909447	-46.367477	-16.726282	9.125145	-2.389375	0.911007	2.210766	0.277898	-6.193534	0.003784	
0.440353	103.253773	0.325805	0.731921	0.971132	-0.161014	-0.751082	-0.935207	0.870583	-0.292252	-0.371065	-0.222277	0.275202	0.472650	-0.485533	0.	0.	0.	-1.025538	-1.068734	-0.480857	-0.338814	0.814011	-0.220070	0.636997	-0.713425	0.853028	0.	0.	0.	0.000000	-0.000001	-0.000002	-4.331717	1.742332	0.538208	2.023500	0.464306	3.149174	49.346096	6.326921	-11.829826	103.437988	-153.665848	85.959068	31.461456	-25.819067	-15.466681	-1.905914	-1.234714	1.293720	-35.112122	21.752863	24.533779	64.349464	-43.741005	85.935837	-46.371063	-16.722136	9.112965	-2.389375	0.911007	2.210766	0.277898	-6.193534	0.003784	
0.440353	103.253773	0.325805	0.731921	0.971132	-0.161014	-0.751082	-0.935207	0.870583	-0.292252	-0.371065	-0.222277	0.275202	0.472650	-0.485533	0.	0.	0.	-1.025538	-1.068734	-0.480857	-0.338814	0.814011	-0.220070	0.636997	-0.713425	0.853028	0.	0.	0.	0.000000	-0.000001	-0.000002	-4.331717	1.742332	0.538208	2.023500	0.464306	3.149174	49.353119	6.340345	-11.829477	103.424286	-153.664597	85.963776	31.452724	-25.828548	-15.488783	-1.905914	-1.234714	1.293720	-35.124294	21.771708	24.537235	64.381897	-43.746204	85.919807	-46.367622	-16.746315	9.130559	-2.389375	0.911007	2.210766	0.277898	-6.193534	0.003784	
0.440353	103.253773	0.325805	0.731921	0.971132	-0.161014	-0.751082	-0.935207	0.870583	-0.292252	-0.371065	-0.222277	0.275202	0.472650	-0.485533	0.	0.	0.	-1.025538	-1.068734	-0.480857	-0.338814	0.814011	-0.220070	0.636997	-0.713425	0.853028	0.	0.	0.	0.000000	-0.000001	-0.000002	-4.331717	1.742332	0.538208	2.023500	0.464306	3.149174	49.360352	6.354177	-11.829124	103.410942	-153.663010	85.962120	31.446032	-25.834955	-15.501613	-1.905914	-1.234714	1.293720	-35.136765	21.791040	24.540796	64.410805	-43.752869	85.921303	-46.358486	-16.751282	9.137016	-2.389375	0.911007	2.210766	0.277898	-6.193534	0.003784	
